<?xml version="1.0" encoding="iso-8859-1"?>
<!-- Generator: Adobe Illustrator 17.0.0, SVG Export Plug-In . SVG Version: 6.00 Build 0)  -->
<!DOCTYPE svg PUBLIC "-//W3C//DTD SVG 1.1//EN" "http://www.w3.org/Graphics/SVG/1.1/DTD/svg11.dtd">
<svg version="1.1" id="Layer_1" xmlns="http://www.w3.org/2000/svg" xmlns:xlink="http://www.w3.org/1999/xlink" x="0px" y="0px"
	 width="154.5px" height="50.5px" viewBox="0 0 154.5 50.5" style="enable-background:new 0 0 154.5 50.5;" xml:space="preserve">
<g id="Vector_Smart_Object_copy_xA0_Image_1_">
	<path style="fill:#0A4595;" d="M67.924,38.833V12.428h13.722c1.948,0,3.529,1.58,3.529,3.528v22.877h-5.758V18.596
		c0-0.498-0.39-0.887-0.866-0.887h-3.982h-0.022c-0.476,0-0.866,0.39-0.866,0.887v20.237H67.924z"/>
	<path style="fill:#0A4595;" d="M125.389,22.103v-3.506c0-0.498-0.39-0.887-0.887-0.887h-4.069c-0.498,0-0.909,0.39-0.909,0.887
		v3.506c0,0.498,0.411,0.887,0.909,0.887h4.069C124.999,22.99,125.389,22.601,125.389,22.103 M113.658,38.833V15.956
		c0-1.948,1.623-3.528,3.614-3.528h10.453c1.992,0,3.615,1.58,3.615,3.528v22.877h-5.952v-9.675c0-0.498-0.39-0.887-0.887-0.887
		h-4.069c-0.498,0-0.909,0.39-0.909,0.887v9.675H113.658z"/>
	<path style="fill:#0A4595;" d="M148.591,22.103v-3.506c0-0.498-0.411-0.887-0.909-0.887h-4.026c-0.498,0-0.887,0.39-0.887,0.887
		v3.506c0,0.498,0.389,0.887,0.887,0.887h4.026C148.18,22.99,148.591,22.601,148.591,22.103 M136.946,38.833V15.956
		c0-1.948,1.602-3.528,3.571-3.528h10.302c1.992,0,3.593,1.58,3.593,3.528v22.877h-5.823v-9.675c0-0.498-0.411-0.887-0.909-0.887
		h-4.026c-0.498,0-0.887,0.39-0.887,0.887v9.675H136.946z"/>
	<path style="fill:#0A4595;" d="M104.915,12.428H94.893c-1.926,0-3.485,1.58-3.485,3.506v0.022v19.306
		c0,1.926,1.558,3.506,3.484,3.506h0.001h10.022c1.926,0,3.485-1.58,3.485-3.506V35.24V15.934
		C108.4,14.008,106.841,12.428,104.915,12.428z M102.727,32.622c0,0.476-0.389,0.866-0.865,0.866h-3.918
		c-0.476-0.001-0.865-0.39-0.865-0.866V18.575c0-0.476,0.389-0.887,0.865-0.887h3.918c0.476,0,0.865,0.411,0.865,0.887V32.622z"/>
</g>
<g id="NOAA_LOGO_VECTOR__copy_2_xA0_Image_1_">
</g>
<g id="Rectangle_12_1_" style="enable-background:new    ;">
</g>
<g>
	<path style="fill:#083381;" d="M5.409,11.067c0.202-0.295,0.409-0.59,0.616-0.874C10.578,4.01,17.909,0,26.177,0
		c7.735,0,14.647,3.508,19.236,9.023c0.145,0.176,0.29,0.357,0.429,0.533c0.109,0-0.518,0.15-1.056,0.419
		c-0.548,0.274-1.283,0.435-2.157,1.2c-0.874,0.771-1.692,1.852-2.607,3.347c-0.921,1.5-1.945,3.798-2.861,5.562
		c-0.916,1.754-1.532,3.441-2.603,4.905c-1.071,1.459-2.457,2.97-3.767,3.782c-1.314,0.807-2.54,1.179-4.025,1.024
		c-1.49-0.165-3.342-1.066-4.822-1.966c-1.475-0.905-2.944-2.411-3.963-3.415c-1.019-0.999-1.185-1.34-2.116-2.535
		c-0.936-1.2-2.276-3.187-3.446-4.584c-1.169-1.392-2.339-2.649-3.508-3.694c-1.174-1.04-2.308-1.857-3.466-2.499L5.409,11.067z"/>
	<path style="fill:#0084CD;" d="M48.533,13.788c1.697,3.373,2.649,7.181,2.649,11.217c0,13.809-11.196,25.005-25.005,25.005
		S1.167,38.814,1.167,25.005c0-2.214,0.29-4.356,0.828-6.4c0,0,1.128,0.435,2.282,1.319c1.154,0.88,1.081,1.04,2.188,2.235
		c1.107,1.19,0.719,1.081,2.235,2.535s1.676,1.837,3.829,3.28c2.147,1.438,2.411,1.563,4.77,2.484
		c2.359,0.916,2.432,0.854,4.672,1.19c1.402,0.083,2.815,0.166,4.222,0.248c-0.843,0.6-1.382,0.833-2.732,1.443
		c-1.356,0.611-1.319,0.533-2.685,0.993c-1.366,0.461-1.888,0.595-2.784,0.849h0.098c0.052,0.248,0.098,0.367,0.895,0.642
		c0.797,0.274,0.885,0.486,2.287,0.45c1.407-0.041,1.18,0.248,3.332-0.595c2.147-0.849,2.98-1.718,5.267-2.789
		c2.287-1.066,1.899-0.994,3.875-1.49c1.976-0.497,2.685-0.497,4.025-0.497v-0.045c0.098-0.3,0.062-0.502-0.347-0.797
		c-0.409-0.3-0.31-0.336-1.293-0.398c-0.983-0.062-1.65,0.088-2.633,0.15s-0.817,0.109-1.288,0.098
		c-0.217-0.052-0.435-0.098-0.647-0.15c0.497-0.046,0.828-0.181,2.033-0.792c1.206-0.611,1.221-0.564,2.784-1.64
		c1.568-1.086,1.64-0.884,3.482-2.685c1.837-1.8,2.287-2.561,3.875-4.522c1.588-1.966,1.268-1.713,2.483-3.327
		C47.436,15.175,47.736,14.828,48.533,13.788"/>
</g>
<g>
	<path style="fill:#FFFFFF;" d="M6.59,22.159c1.107,1.19,0.719,1.081,2.235,2.535c1.516,1.454,1.676,1.837,3.829,3.28
		c2.147,1.438,2.411,1.563,4.77,2.484c2.359,0.916,2.432,0.854,4.672,1.19c1.402,0.083,2.815,0.166,4.222,0.248
		c-0.843,0.6-1.382,0.833-2.732,1.443c-1.356,0.611-1.319,0.533-2.685,0.993c-1.366,0.461-1.888,0.595-2.784,0.849h0.098
		c0.052,0.248,0.098,0.367,0.895,0.642c0.797,0.274,0.885,0.486,2.287,0.45c1.407-0.041,1.18,0.248,3.332-0.595
		c2.147-0.849,2.98-1.718,5.267-2.789c2.287-1.066,1.899-0.994,3.875-1.49c1.976-0.497,2.685-0.497,4.025-0.497v-0.045
		c0.098-0.3,0.062-0.502-0.347-0.797c-0.409-0.3-0.31-0.336-1.293-0.398c-0.983-0.062-1.65,0.088-2.633,0.15
		c-0.983,0.062-0.817,0.109-1.288,0.098c-0.217-0.052-0.435-0.098-0.647-0.15c0.497-0.046,0.828-0.181,2.033-0.792
		c1.206-0.611,1.221-0.564,2.784-1.64c1.568-1.086,1.64-0.884,3.482-2.685c1.837-1.8,2.287-2.561,3.875-4.522
		c1.588-1.966,1.268-1.713,2.483-3.327c1.213-1.615,1.515-1.965,2.307-2.998c-0.755-1.503-1.657-2.918-2.688-4.228
		c-0.081,0.038-0.597,0.179-1.053,0.408c-0.548,0.274-1.283,0.435-2.157,1.2c-0.874,0.771-1.692,1.852-2.607,3.347
		c-0.921,1.5-1.945,3.798-2.861,5.562c-0.916,1.754-1.532,3.441-2.603,4.905c-1.071,1.459-2.457,2.97-3.767,3.782
		c-1.314,0.807-2.54,1.179-4.025,1.024c-1.49-0.165-3.342-1.066-4.822-1.966c-1.475-0.905-2.944-2.411-3.963-3.415
		c-1.019-0.999-1.185-1.34-2.116-2.535c-0.936-1.2-2.276-3.187-3.446-4.584c-1.169-1.392-2.339-2.649-3.508-3.694
		c-1.174-1.04-2.308-1.857-3.466-2.499l-0.035-0.034c-1.53,2.275-2.694,4.816-3.413,7.538c0.011,0.004,1.132,0.438,2.28,1.318
		C5.556,20.804,5.483,20.964,6.59,22.159z"/>
	<path style="fill:#FFFFFF;" d="M-131.655-11.659c0.028-0.371,0.064-0.74,0.108-1.106C-131.591-12.399-131.627-12.03-131.655-11.659
		z"/>
	<path style="fill:#FFFFFF;" d="M-131.494-13.178c0.058-0.418,0.125-0.832,0.203-1.243
		C-131.369-14.01-131.437-13.596-131.494-13.178z"/>
	<path style="fill:#FFFFFF;" d="M-131.254-14.627c0.098-0.494,0.21-0.982,0.337-1.465
		C-131.044-15.609-131.156-15.121-131.254-14.627z"/>
	<path style="fill:#FFFFFF;" d="M-131.737-9.732c0-0.506,0.019-1.006,0.049-1.504C-131.717-10.738-131.737-10.237-131.737-9.732z"/>
</g>
</svg>
